<svg id="Layer_1" data-name="Layer 1" xmlns="http://www.w3.org/2000/svg" viewBox="0 0 500 500"><defs><style>.cls-1{fill:#096;}.cls-2{fill:#fff;}.cls-3{fill:#ffcc29;}</style></defs><path class="cls-1" d="M277.56,498H222.44C100.7,498,2,399.3,2,277.56V73.64A71.65,71.65,0,0,1,73.64,2H426.36A71.65,71.65,0,0,1,498,73.64V277.56C498,399.3,399.3,498,277.56,498Z"/><path class="cls-2" d="M409.23,38.08a52.74,52.74,0,0,1,52.69,52.69V274.88a186.86,186.86,0,0,1-187,187H225.12a186.86,186.86,0,0,1-187-187V90.77A52.74,52.74,0,0,1,90.77,38.08H409.23m0-12H90.77A64.69,64.69,0,0,0,26.08,90.77V274.88c0,109.93,89.11,199,199,199h49.76c109.93,0,199-89.11,199-199V90.77a64.69,64.69,0,0,0-64.69-64.69Z"/><path class="cls-3" d="M222.45,256.73V2H399V256.73a16.54,16.54,0,0,1-27.38,12.49L314.35,219.5a5.52,5.52,0,0,0-7.23,0l-57.28,49.72A16.54,16.54,0,0,1,222.45,256.73Z"/></svg>