<svg xmlns="http://www.w3.org/2000/svg" viewBox="0 0 1726.37 1053.05"><defs><style>.cls-1,.cls-2{fill:#f2f2f2;}.cls-2{opacity:0.9;}.cls-3{fill:#3f3d56;}.cls-4{opacity:0.2;}.cls-4,.cls-5{isolation:isolate;}.cls-5{opacity:0.1;}.cls-12,.cls-6{fill:#3ecc5f;}.cls-7{fill:#ffcc29;}.cls-8{fill:#52bffd;}.cls-9{fill:#5c8afd;}.cls-10{fill:#096;}.cls-11,.cls-15{fill:#fff;}.cls-11,.cls-12,.cls-13,.cls-14{fill-rule:evenodd;}.cls-13{fill:#44d860;}</style></defs><g id="Layer_2" data-name="Layer 2"><g id="Layer_1-2" data-name="Layer 1"><circle class="cls-1" cx="419.13" cy="617.38" r="419.13"/><circle class="cls-2" cx="941.97" cy="419.13" r="419.13"/><circle class="cls-1" cx="1307.24" cy="606.5" r="419.13"/><path class="cls-3" d="M242.86,982.32a28.3,28.3,0,0,0,28.3,28.3h1040.2a28.3,28.3,0,0,0,28.3-28.3h0V419.13H242.86Z"/><rect class="cls-4" x="304.23" y="462.87" width="440.02" height="504" rx="45.7"/><ellipse class="cls-3" cx="1427.14" cy="788.41" rx="24.92" ry="32.62"/><ellipse class="cls-3" cx="1427.14" cy="748.54" rx="24.92" ry="32.62"/><path class="cls-5" d="M1307.26,549.52a118.86,118.86,0,0,0,25.54,73.79,119.35,119.35,0,1,0,187.62,0C1536.41,603,1307.26,536.12,1307.26,549.52Z"/><ellipse class="cls-3" cx="801.7" cy="1017.15" rx="671.13" ry="35.91"/><ellipse class="cls-4" cx="800.4" cy="1006.05" rx="600.63" ry="28.73"/><rect class="cls-3" x="242.86" y="386.49" width="1096.79" height="65.29"/><path class="cls-3" d="M1311.36,340.79H271.16a28.3,28.3,0,0,0-28.3,28.29h0v50.05h1096.8V369.08a28.3,28.3,0,0,0-28.3-28.29Z"/><path class="cls-4" d="M1311.36,340.79H271.16a28.3,28.3,0,0,0-28.3,28.29h0v50.05h1096.8V369.08a28.3,28.3,0,0,0-28.3-28.29Z"/><circle class="cls-3" cx="308.15" cy="379.96" r="16.97"/><circle class="cls-3" cx="355.15" cy="379.96" r="16.97"/><circle class="cls-3" cx="402.16" cy="379.96" r="16.97"/><rect class="cls-6" x="897.61" y="506.24" width="241.28" height="17.3" rx="8.65"/><rect class="cls-7" x="835" y="506.24" width="56.98" height="17.3" rx="8.65"/><rect class="cls-8" x="1145.91" y="506.24" width="106.97" height="17.3" rx="8.65"/><rect class="cls-9" x="950.61" y="542.6" width="219.96" height="17.3" rx="8.65"/><rect class="cls-7" x="835" y="542.6" width="108.59" height="17.3" rx="8.65"/><rect class="cls-8" x="1178.18" y="542.6" width="74.7" height="17.3" rx="8.65"/><rect class="cls-6" x="863.48" y="578.96" width="270.55" height="17.3" rx="8.65"/><rect class="cls-10" x="835" y="578.96" width="22.52" height="17.3" rx="8.65"/><rect class="cls-7" x="1138.89" y="578.96" width="113.99" height="17.3" rx="8.65"/><rect class="cls-9" x="897.61" y="615.32" width="241.28" height="17.3" rx="8.65"/><rect class="cls-8" x="835" y="615.32" width="56.98" height="17.3" rx="8.65"/><rect class="cls-7" x="1145.91" y="615.32" width="106.97" height="17.3" rx="8.65"/><rect class="cls-6" x="950.61" y="651.68" width="219.96" height="17.3" rx="8.65"/><rect class="cls-7" x="835" y="651.68" width="108.59" height="17.3" rx="8.65"/><rect class="cls-8" x="1178.18" y="651.68" width="74.7" height="17.3" rx="8.65"/><rect class="cls-9" x="863.48" y="688.04" width="270.55" height="17.3" rx="8.65"/><rect class="cls-10" x="835" y="688.04" width="22.52" height="17.3" rx="8.65"/><rect class="cls-7" x="1138.89" y="688.04" width="113.99" height="17.3" rx="8.65"/><rect class="cls-6" x="948.99" y="906.21" width="241.28" height="17.3" rx="8.65" transform="translate(2139.26 1829.72) rotate(-180)"/><rect class="cls-7" x="1195.9" y="906.21" width="56.98" height="17.3" rx="8.65" transform="translate(2448.79 1829.72) rotate(180)"/><rect class="cls-8" x="835" y="906.21" width="106.97" height="17.3" rx="8.65" transform="translate(1776.96 1829.72) rotate(-180)"/><rect class="cls-9" x="917.3" y="869.85" width="219.96" height="17.3" rx="8.65" transform="translate(2054.57 1757) rotate(-180)"/><rect class="cls-7" x="1144.29" y="869.85" width="108.59" height="17.3" rx="8.65" transform="translate(2397.17 1757) rotate(180)"/><rect class="cls-8" x="835" y="869.85" width="74.7" height="17.3" rx="8.65" transform="translate(1744.69 1757) rotate(180)"/><rect class="cls-6" x="953.84" y="833.49" width="270.55" height="17.3" rx="8.65" transform="translate(2178.24 1684.28) rotate(-180)"/><rect class="cls-10" x="1230.36" y="833.49" width="22.52" height="17.3" rx="8.65" transform="translate(2483.24 1684.28) rotate(180)"/><rect class="cls-7" x="835" y="833.49" width="113.99" height="17.3" rx="8.65" transform="translate(1783.98 1684.28) rotate(180)"/><rect class="cls-9" x="948.99" y="797.13" width="241.28" height="17.3" rx="8.65" transform="translate(2139.26 1611.56) rotate(180)"/><rect class="cls-8" x="1195.9" y="797.13" width="56.98" height="17.3" rx="8.65" transform="translate(2448.79 1611.56) rotate(180)"/><rect class="cls-7" x="835" y="797.13" width="106.97" height="17.3" rx="8.65" transform="translate(1776.96 1611.56) rotate(180)"/><rect class="cls-6" x="917.3" y="760.77" width="219.96" height="17.3" rx="8.65" transform="translate(2054.57 1538.83) rotate(180)"/><rect class="cls-7" x="1144.29" y="760.77" width="108.59" height="17.3" rx="8.65" transform="translate(2397.17 1538.83) rotate(180)"/><rect class="cls-8" x="835" y="760.77" width="74.7" height="17.3" rx="8.65" transform="translate(1744.69 1538.83) rotate(180)"/><rect class="cls-9" x="953.84" y="724.41" width="270.55" height="17.3" rx="8.65" transform="translate(2178.24 1466.11) rotate(180)"/><rect class="cls-10" x="1230.36" y="724.41" width="22.52" height="17.3" rx="8.65" transform="translate(2483.24 1466.11) rotate(-180)"/><rect class="cls-7" x="835" y="724.41" width="113.99" height="17.3" rx="8.65" transform="translate(1783.98 1466.11) rotate(180)"/><path class="cls-11" d="M502.85,635.14H648.41v58.92H502.85Z"/><path class="cls-12" d="M371.16,827.48a34.61,34.61,0,0,1-30-17.33,34.62,34.62,0,0,0,30,52h34.66V827.48Z"/><path class="cls-12" d="M527.08,644.46l121.33-7.58V619.55a34.66,34.66,0,0,0-34.66-34.66H457.8l-4.33-7.5a5,5,0,0,0-8.66,0l-4.34,7.5-4.33-7.5a5,5,0,0,0-8.66,0l-4.33,7.5-4.34-7.5a5,5,0,0,0-8.66,0l-4.33,7.5h-.11l-7.18-7.18a5,5,0,0,0-7.07,0,5.06,5.06,0,0,0-1.3,2.25l-2.37,8.84-9-2.41a5,5,0,0,0-6.12,6.12l2.41,9-8.84,2.37A5,5,0,0,0,362.7,610a4.91,4.91,0,0,0,1.29,2.24l7.18,7.18s0,.07,0,.11l-7.5,4.33a5,5,0,0,0-1.83,6.83,4.94,4.94,0,0,0,1.83,1.83l7.5,4.34-7.5,4.33a5,5,0,0,0,0,8.66l7.5,4.33-7.5,4.34a5,5,0,0,0,0,8.66l7.5,4.33-7.5,4.33a5,5,0,0,0,0,8.67l7.5,4.33-7.5,4.33a5,5,0,0,0,0,8.67l7.5,4.33-7.5,4.33a5,5,0,0,0,0,8.66l7.5,4.33-7.5,4.34a5,5,0,0,0,0,8.66l7.5,4.33-7.5,4.33a5,5,0,0,0,0,8.67l7.5,4.33-7.5,4.33a5,5,0,0,0,0,8.67l7.5,4.33-7.5,4.33a5,5,0,0,0,0,8.66l7.5,4.34-7.5,4.33a5,5,0,0,0,0,8.66l7.5,4.33-7.5,4.34a5,5,0,0,0,0,8.66l7.5,4.33a34.66,34.66,0,0,0,34.66,34.66H613.75a34.66,34.66,0,0,0,34.66-34.66h0V688.86l-121.33-7.58a18.45,18.45,0,0,1,0-36.82"/><path class="cls-12" d="M579.1,862.14h52V792.83h-52Z"/><path class="cls-13" d="M665.73,818.82a8,8,0,0,0-1.1.11c-.07-.26-.13-.52-.2-.78a8.65,8.65,0,0,0-6.57-16,8.78,8.78,0,0,0-2,1.14c-.19-.19-.38-.39-.58-.58a8.65,8.65,0,1,0-13.84-10.37,9,9,0,0,0-1,1.8l-.77-.2a8.67,8.67,0,1,0-17.1-2.83,8.4,8.4,0,0,0,0,2.83l-.78.2a8.65,8.65,0,1,0-14.88,8.57A34.64,34.64,0,1,0,664.63,836a8.64,8.64,0,0,0,2.25-17.14,8.77,8.77,0,0,0-1.15-.07"/><path class="cls-12" d="M596.42,758.17h52V723.51h-52Z"/><path class="cls-13" d="M678.79,745.17a4.33,4.33,0,0,0,0-8.66,5.14,5.14,0,0,0-.55.06c0-.13-.07-.26-.1-.39a4.33,4.33,0,0,0-1.67-8.33,4.23,4.23,0,0,0-2.61.89l-.29-.29a4.33,4.33,0,1,0-7.45-4.28,17.33,17.33,0,1,0,0,33.35,4.33,4.33,0,1,0,7.45-4.29l.29-.29a4.23,4.23,0,0,0,2.61.9,4.33,4.33,0,0,0,1.67-8.33c0-.13.06-.26.1-.39a3.41,3.41,0,0,0,.55,0"/><path class="cls-14" d="M440.47,641.21a4.33,4.33,0,0,1-4.33-4.33,13,13,0,1,0-26,0,4.33,4.33,0,1,1-8.66,0h0a21.66,21.66,0,0,1,43.32,0,4.33,4.33,0,0,1-4.34,4.33h0"/><path class="cls-12" d="M475.13,862.14h69.31V792.83H475.13Z"/><path class="cls-12" d="M475.13,758.17h69.31V723.51H475.13Z"/><path class="cls-14" d="M579.1,617.38a4.24,4.24,0,0,1-1.67-.33,4.73,4.73,0,0,1-.74-.39,6,6,0,0,1-.66-.54,5.56,5.56,0,0,1-.54-.66,4.3,4.3,0,0,1-.73-2.41,6.13,6.13,0,0,1,.09-.85,4.2,4.2,0,0,1,.64-1.56,4.12,4.12,0,0,1,1.2-1.19,4,4,0,0,1,1.56-.64,3.75,3.75,0,0,1,1.7,0,4.05,4.05,0,0,1,1.55.64,4.94,4.94,0,0,1,.66.53,5.56,5.56,0,0,1,.54.66,4.51,4.51,0,0,1,.4.75,4.72,4.72,0,0,1,.33,1.66,4.41,4.41,0,0,1-1.27,3.07,6,6,0,0,1-.66.54,4.36,4.36,0,0,1-2.4.72m34.65-2.16a4.41,4.41,0,0,1-3.07-1.27,6.66,6.66,0,0,1-.53-.66,4.22,4.22,0,0,1-.73-2.41,4.44,4.44,0,0,1,1.26-3.06,6.76,6.76,0,0,1,.66-.54,4.51,4.51,0,0,1,.75-.4,4.45,4.45,0,0,1,.81-.24,4.06,4.06,0,0,1,1.7,0,4.19,4.19,0,0,1,1.56.64,6.76,6.76,0,0,1,.66.54,4.4,4.4,0,0,1,1.26,3.06,4.8,4.8,0,0,1-.08.85,4.58,4.58,0,0,1-.25.82,5.22,5.22,0,0,1-.39.74q-.25.35-.54.66t-.66.54a4.3,4.3,0,0,1-2.41.73"/><path class="cls-10" d="M604.76,862.14H584.89a79.48,79.48,0,0,1-79.48-79.48V709.14a25.82,25.82,0,0,1,25.83-25.83H658.41a25.83,25.83,0,0,1,25.83,25.83v73.52A79.49,79.49,0,0,1,604.76,862.14Z"/><path class="cls-15" d="M652.23,696.31a19,19,0,0,1,19,19v66.38a67.39,67.39,0,0,1-67.44,67.44H585.85a67.39,67.39,0,0,1-67.44-67.44V715.31a19,19,0,0,1,19-19H652.23m0-4.32H537.41a23.32,23.32,0,0,0-23.32,23.32v66.38a71.76,71.76,0,0,0,71.76,71.77h17.94a71.77,71.77,0,0,0,71.77-71.77V715.31A23.33,23.33,0,0,0,652.23,692Z"/><path class="cls-7" d="M584.89,775.15V683.31h63.66v91.84a6,6,0,0,1-9.87,4.5L618,761.72a2,2,0,0,0-2.6,0l-20.66,17.93A6,6,0,0,1,584.89,775.15Z"/><path class="cls-13" d="M553,818.82a8.34,8.34,0,0,0-1.11.11c-.06-.26-.12-.52-.2-.78a8.65,8.65,0,0,0-6.57-16,8.93,8.93,0,0,0-2,1.14c-.19-.19-.38-.39-.58-.58a8.65,8.65,0,1,0-13.84-10.37,8.51,8.51,0,0,0-1,1.8l-.77-.2a8.67,8.67,0,1,0-17.11-2.83,9,9,0,0,0,0,2.83l-.77.2a8.65,8.65,0,1,0-14.88,8.57A34.64,34.64,0,1,0,551.87,836a8.64,8.64,0,1,0,2.26-17.14,8.88,8.88,0,0,0-1.15-.07"/><path class="cls-13" d="M522.6,745.17a4.33,4.33,0,0,0,0-8.66h0a5.32,5.32,0,0,0-.56.06c0-.13-.06-.26-.1-.39a4.33,4.33,0,0,0-1.66-8.33,4.27,4.27,0,0,0-2.62.89l-.29-.29a4.24,4.24,0,0,0,.88-2.59,4.33,4.33,0,0,0-8.32-1.69,17.33,17.33,0,1,0,0,33.35,4.33,4.33,0,1,0,7.44-4.29l.29-.29a4.28,4.28,0,0,0,2.62.9,4.33,4.33,0,0,0,1.66-8.33c0-.13.07-.26.1-.39a3.53,3.53,0,0,0,.56,0"/><rect class="cls-3" x="455.28" y="362.99" width="797.6" height="33.95" rx="16.97"/><path class="cls-3" d="M1446.86,848.21a39.38,39.38,0,0,0,5.2-19.93c0-18-11.16-32.62-24.92-32.62s-24.91,14.6-24.91,32.62a39.28,39.28,0,0,0,5.2,19.93,40.76,40.76,0,0,0,0,39.86,40.78,40.78,0,0,0,0,39.87,40.78,40.78,0,0,0,0,39.87,39.22,39.22,0,0,0-5.2,19.93c0,18,11.15,32.62,24.91,32.62s24.92-14.61,24.92-32.62a39.32,39.32,0,0,0-5.2-19.93,40.83,40.83,0,0,0,0-39.87,40.83,40.83,0,0,0,0-39.87A40.81,40.81,0,0,0,1446.86,848.21Z"/><path class="cls-12" d="M1520.42,475.73a121.53,121.53,0,0,0,9.28-13.66l-65.47-10.75,70.8.52a119.5,119.5,0,0,0,2.28-94.56l-95,49.28,87.61-64.4A119.36,119.36,0,1,0,1332.8,475.73a119.53,119.53,0,0,0-13.61,21.76l85,44.16-90.61-30.42a119.42,119.42,0,0,0,19.24,112.08,119.35,119.35,0,1,0,187.62,0A119.38,119.38,0,0,0,1520.42,475.73Z"/></g></g></svg>