<svg xmlns="http://www.w3.org/2000/svg" viewBox="0 0 1507.69 953.34"><defs><style>.cls-1{fill:#f2f2f2;}.cls-2{fill:#3f3d56;}.cls-3{opacity:0.1;}.cls-3,.cls-6{isolation:isolate;}.cls-4{fill:#6c63ff;}.cls-5{fill:#a8a8a8;}.cls-6{opacity:0.2;}.cls-11,.cls-7{fill:#fff;}.cls-13,.cls-7,.cls-8,.cls-9{fill-rule:evenodd;}.cls-8{fill:#3ecc5f;}.cls-9{fill:#44d860;}.cls-10{fill:#096;}.cls-12{fill:#ffcc29;}</style></defs><g id="Layer_2" data-name="Layer 2"><g id="Layer_1-2" data-name="Layer 1"><circle id="Ellipse_11" data-name="Ellipse 11" class="cls-1" cx="668.18" cy="133.85" r="4.16"/><path id="Path_89" data-name="Path 89" class="cls-1" d="M424.29,160.54h-3.82v-3.83h-2.05v3.83h-3.83v2.05h3.83v3.82h2.05v-3.82h3.82Z"/><circle id="Ellipse_17" data-name="Ellipse 17" class="cls-1" cx="1120.71" cy="393.17" r="2.77"/><path id="Path_90" data-name="Path 90" class="cls-1" d="M1125.56,628.08h-3.82v-3.82h-2v3.82h-3.83v2h3.83V634h2v-3.83h3.82Z"/><circle id="Ellipse_15" data-name="Ellipse 15" class="cls-1" cx="1120.71" cy="129.69" r="2.77"/><circle id="Ellipse_16" data-name="Ellipse 16" class="cls-1" cx="1120.71" cy="136.82" r="2.77"/><path id="Path_83" data-name="Path 83" class="cls-2" d="M1332.82,629.74c-7.3,62.57-22.47,112.8-43.3,152.86C1261.81,836,1214.4,857.49,1172.05,880a267.89,267.89,0,0,1-38,16.55c-77.06,26.74-163.31,19.65-231.06,5.53A911.66,911.66,0,0,0,758.7,883.83q-20.75-.93-41.53-.93c-21.37,0-406.13,7.33-499.8-182.32-23.13-46.78-39-103.93-44.68-173.59C156.58,330.05,245.15,200.7,359.41,116.16,575.54-43.77,871.8-37.07,1084.75,127.08,1226.59,236.41,1359.4,401.88,1332.82,629.74Z"/><path id="Path_84" data-name="Path 84" class="cls-1" d="M1289.52,782.6c-27.71,53.38-65.42,88.75-107.77,111.25a269,269,0,0,1-38,16.55c-77.06,26.74-163.31,19.65-231.06,5.53A910.5,910.5,0,0,0,768.4,897.69q-20.74-.93-41.53-.93-32.05,0-64.1,2.38C524,909.34,311,890.23,217.37,700.58l234.38-454,87.24,224,27.84,71.49,76.72-105.28,39.62-54.37L863.6,589.26l51-112.62,353.06,288.13,19.69,16.06Z"/><path id="Path_85" data-name="Path 85" class="cls-3" d="M418.5,392.11l36-79,49.89,115-43-83.14Z"/><path id="Path_86" data-name="Path 86" class="cls-3" d="M768.4,897.69q-20.74-.93-41.53-.93l-160-354.69Z"/><path id="Path_87" data-name="Path 87" class="cls-3" d="M643.56,436.78,683.17,406,863.32,613.83,680.4,436.46Z"/><path id="Path_88" data-name="Path 88" class="cls-3" d="M1181.75,893.85a269,269,0,0,1-38,16.55L863.6,589.26Z"/><circle id="Ellipse_11-2" data-name="Ellipse 11" class="cls-1" cx="667.93" cy="141.29" r="4.16"/><circle id="Ellipse_12" data-name="Ellipse 12" class="cls-1" cx="552.91" cy="284.03" r="4.16"/><circle id="Ellipse_13" data-name="Ellipse 13" class="cls-1" cx="834.22" cy="308.97" r="2.77"/><circle id="Ellipse_14" data-name="Ellipse 14" class="cls-1" cx="252.21" cy="371.33" r="2.77"/><circle id="Ellipse_15-2" data-name="Ellipse 15" class="cls-1" cx="850.85" cy="137.14" r="2.77"/><circle id="Ellipse_16-2" data-name="Ellipse 16" class="cls-1" cx="1022.68" cy="270.17" r="2.77"/><circle id="Ellipse_17-2" data-name="Ellipse 17" class="cls-1" cx="1191.74" cy="480.8" r="2.77"/><path id="Path_89-2" data-name="Path 89" class="cls-1" d="M424,168h-3.83v-3.82h-2V168h-3.82V170h3.82v3.82h2V170H424Z"/><path id="Path_90-2" data-name="Path 90" class="cls-1" d="M1175.11,587.86h-3.82V584h-2v3.82h-3.83v2h3.83v3.83h2v-3.83h3.82Z"/><path id="Path_91" data-name="Path 91" class="cls-2" d="M1507.69,850.8c0,23-337.51,102.54-753.84,102.54S0,873.76,0,850.8s337.51,19.4,753.85,19.4S1507.69,827.84,1507.69,850.8Z"/><path id="Path_92" data-name="Path 92" class="cls-3" d="M1507.69,850.8c0,23-337.51,102.54-753.84,102.54S0,873.76,0,850.8s337.51,19.4,753.85,19.4S1507.69,827.84,1507.69,850.8Z"/><ellipse id="Ellipse_18" data-name="Ellipse 18" class="cls-2" cx="753.85" cy="850.8" rx="753.85" ry="41.57"/><path id="Path_95" data-name="Path 95" class="cls-2" d="M189.85,679.75c0,76.69,48.11,138.75,107.57,138.75"/><path id="Path_96" data-name="Path 96" class="cls-4" d="M297.42,818.5c0-77.56,53.69-140.31,120-140.31"/><path id="Path_97" data-name="Path 97" class="cls-4" d="M228.82,686.7c0,72.85,30.68,131.8,68.6,131.8"/><path id="Path_98" data-name="Path 98" class="cls-2" d="M297.42,818.5c0-99.1,62.06-179.29,138.75-179.29"/><path id="Path_99" data-name="Path 99" class="cls-5" d="M274.79,819.48s15.26-.47,19.86-3.75,23.46-7.18,24.6-1.93,22.93,26.11,5.7,26.25-40-2.68-44.6-5.47S274.79,819.48,274.79,819.48Z"/><path id="Path_100" data-name="Path 100" class="cls-6" d="M325.26,838.22c-17.23.14-40-2.68-44.61-5.47-3.5-2.13-4.89-9.77-5.35-13.29l-.51,0s1,12.3,5.55,15.1,27.39,5.62,44.61,5.48c5,0,6.69-1.81,6.59-4.44C330.85,837.21,329,838.19,325.26,838.22Z"/><path id="Path_113" data-name="Path 113" class="cls-3" d="M531.71,833.27c0,41.88-58.37,28.93-129.84,28.93s-129,12.95-129-28.93,58.36-51,129.84-51S531.71,791.4,531.71,833.27Z"/><path id="Path_114" data-name="Path 114" class="cls-2" d="M531.71,823c0,41.88-58.37,28.92-129.84,28.92s-129,13-129-28.92,58.36-51,129.83-51S531.71,781.09,531.71,823Z"/><path id="Path_40" data-name="Path 40" class="cls-7" d="M894.49,551.5h199.78v80.86H894.49Z"/><path id="Path_41" data-name="Path 41" class="cls-8" d="M713.74,815.5a47.52,47.52,0,0,1-41.16-23.79,47.51,47.51,0,0,0,41.16,71.35H761.3V815.5Z"/><path id="Path_43" data-name="Path 43" class="cls-8" d="M999.14,863.06h71.35V767.93H999.14Z"/><path id="Path_45" data-name="Path 45" class="cls-8" d="M1022.92,720.36h71.35V672.8h-71.35Z"/><path id="Path_50" data-name="Path 50" class="cls-8" d="M856.44,863.06h95.13V767.93H856.44Z"/><path id="Path_60" data-name="Path 60" class="cls-8" d="M856.44,720.36h95.13V672.8H856.44Z"/><path id="Path_44" data-name="Path 44" class="cls-9" d="M1118.06,803.6a11.34,11.34,0,0,0-1.53.16c-.09-.36-.17-.72-.27-1.08a11.88,11.88,0,0,0-9-22,12.16,12.16,0,0,0-2.75,1.59c-.26-.27-.52-.54-.79-.8a11.87,11.87,0,1,0-20.43-11.76c-.35-.1-.7-.18-1.06-.27a11.9,11.9,0,1,0-23.48-3.88,12,12,0,0,0,0,3.88c-.35.09-.7.17-1,.27a11.88,11.88,0,1,0-21.92,9.16,11.76,11.76,0,0,0,1.49,2.6,47.54,47.54,0,1,0,79.27,45.75,11.87,11.87,0,1,0,3.08-23.53,11.54,11.54,0,0,0-1.55-.11"/><path id="Path_46" data-name="Path 46" class="cls-9" d="M1118.06,702.52a5.95,5.95,0,1,0,0-11.89h0a6.31,6.31,0,0,0-.76.08c0-.18-.09-.36-.14-.54a5.94,5.94,0,1,0-5.88-10.2l-.4-.4a5.94,5.94,0,1,0-10.21-5.88,23.78,23.78,0,1,0,0,45.77,5.94,5.94,0,1,0,10.21-5.88l.4-.4a5.94,5.94,0,1,0,5.88-10.2c0-.18.09-.36.14-.54a6.31,6.31,0,0,0,.76.08"/><path id="Path_42" data-name="Path 42" class="cls-8" d="M927.74,564.29l166.53-10.41V530.09a47.56,47.56,0,0,0-47.56-47.56H832.65l-5.94-10.31a6.88,6.88,0,0,0-9.38-2.52,7,7,0,0,0-2.52,2.52l-5.94,10.3-6-10.3a6.86,6.86,0,0,0-11.89,0l-5.95,10.3-5.94-10.3a6.88,6.88,0,0,0-9.38-2.52,7,7,0,0,0-2.51,2.52l-6,10.31h-.15l-9.85-9.85a6.86,6.86,0,0,0-11.49,3.08l-3.26,12.13-12.35-3.31a6.87,6.87,0,0,0-8.41,8.41l3.31,12.36L707,508.6a6.88,6.88,0,0,0-3.08,11.49l9.85,9.85v.16L703.43,536a6.85,6.85,0,0,0,0,11.89l10.3,6-10.3,5.94a6.87,6.87,0,0,0,0,11.9l10.3,5.94-10.3,6a6.86,6.86,0,0,0-2.52,9.37,6.77,6.77,0,0,0,2.52,2.52l10.3,6-10.3,5.93a6.85,6.85,0,0,0,0,11.89l10.3,6-10.3,5.94a6.87,6.87,0,0,0,0,11.9l10.3,5.94-10.3,6a6.85,6.85,0,0,0,0,11.89l10.3,5.95-10.3,5.94a6.85,6.85,0,0,0,0,11.89l10.3,6-10.3,5.95a6.86,6.86,0,0,0-2.52,9.37,6.77,6.77,0,0,0,2.52,2.52l10.3,5.94-10.3,5.95a6.85,6.85,0,0,0,0,11.89l10.3,5.95-10.3,5.94a6.85,6.85,0,0,0,0,11.89l10.3,5.95-10.3,6a6.87,6.87,0,0,0,0,11.9l10.3,5.94-10.3,5.94a6.85,6.85,0,0,0,0,11.89l10.3,6a47.56,47.56,0,0,0,47.56,47.56H1046.7a47.56,47.56,0,0,0,47.57-47.56h0V625.23L927.74,614.82a25.32,25.32,0,0,1,0-50.54"/><path class="cls-10" d="M1110.7,870.94h-32.86A131.43,131.43,0,0,1,946.41,739.51V617.93a42.71,42.71,0,0,1,42.72-42.71h210.29a42.71,42.71,0,0,1,42.71,42.71V739.51A131.43,131.43,0,0,1,1110.7,870.94Z"/><path class="cls-11" d="M1189.21,596.73a31.44,31.44,0,0,1,31.41,31.41V737.91a111.41,111.41,0,0,1-111.51,111.52h-29.67A111.41,111.41,0,0,1,967.92,737.91V628.14a31.44,31.44,0,0,1,31.41-31.41h189.88m0-7.16H999.33a38.56,38.56,0,0,0-38.56,38.57V737.91a118.67,118.67,0,0,0,118.67,118.67h29.67a118.67,118.67,0,0,0,118.67-118.67V628.14a38.57,38.57,0,0,0-38.57-38.57Z"/><path class="cls-12" d="M1077.85,727.09V575.22h105.27V727.09a9.87,9.87,0,0,1-16.33,7.45l-34.15-29.65a3.29,3.29,0,0,0-4.31,0l-34.15,29.65A9.87,9.87,0,0,1,1077.85,727.09Z"/><path id="Path_59" data-name="Path 59" class="cls-9" d="M999.14,803.6a11,11,0,0,0-1.52.16c-.1-.36-.18-.72-.28-1.08a11.88,11.88,0,1,0-9-22,12.09,12.09,0,0,0-2.74,1.59l-.8-.8a11.87,11.87,0,1,0-19-14.26,11.52,11.52,0,0,0-1.44,2.5l-1.06-.27a11.9,11.9,0,1,0-23.48-3.88,12,12,0,0,0,0,3.88c-.35.09-.71.17-1.06.27a11.88,11.88,0,1,0-20.42,11.76,47.54,47.54,0,1,0,79.27,45.75,11.86,11.86,0,1,0,3.07-23.53,11.42,11.42,0,0,0-1.55-.11"/><path id="Path_61" data-name="Path 61" class="cls-9" d="M975.35,702.52a5.95,5.95,0,1,0,0-11.89h0a6.77,6.77,0,0,0-.76.08c0-.18-.08-.36-.13-.54a5.94,5.94,0,1,0-5.88-10.2c-.13-.13-.26-.27-.4-.4a5.85,5.85,0,0,0,1.2-3.55A5.94,5.94,0,0,0,958,673.69a23.78,23.78,0,1,0,0,45.77,5.94,5.94,0,0,0,11.41-2.33,5.85,5.85,0,0,0-1.2-3.55c.14-.13.27-.27.4-.4a5.94,5.94,0,1,0,5.88-10.2c0-.18.09-.36.13-.54a6.77,6.77,0,0,0,.76.08"/><path id="Path_47" data-name="Path 47" class="cls-13" d="M808.87,559.82a6,6,0,0,1-6-5.94,17.84,17.84,0,0,0-35.67,0,5.95,5.95,0,0,1-11.89,0h0a29.73,29.73,0,0,1,59.46,0,6,6,0,0,1-6,5.94h0"/><path id="Path_62" data-name="Path 62" class="cls-13" d="M999.14,527.12A5.81,5.81,0,0,1,998,527a6.15,6.15,0,0,1-1.11-.33,5.65,5.65,0,0,1-1-.55,6,6,0,0,1-1.64-1.64,6,6,0,0,1-1-3.3,7.74,7.74,0,0,1,.12-1.17,7.08,7.08,0,0,1,.33-1.11,6.79,6.79,0,0,1,.55-1,5.82,5.82,0,0,1,1.64-1.64,6.35,6.35,0,0,1,1-.55,7.08,7.08,0,0,1,1.11-.33,5.76,5.76,0,0,1,2.34,0,6,6,0,0,1,2.14.87c.31.23.61.48.9.74a10.72,10.72,0,0,1,.74.9,6.73,6.73,0,0,1,.54,1,6.15,6.15,0,0,1,.46,2.28,6,6,0,0,1-1.75,4.21,9.32,9.32,0,0,1-.9.74,6,6,0,0,1-3.31,1m47.57-3a6.06,6.06,0,0,1-4.21-1.74,9,9,0,0,1-.73-.9,5.83,5.83,0,0,1-1-3.31,6.06,6.06,0,0,1,1.74-4.21,8,8,0,0,1,.9-.73,5.65,5.65,0,0,1,1-.55,6.08,6.08,0,0,1,3.45-.33,5.68,5.68,0,0,1,2.13.87,9.09,9.09,0,0,1,.91.73,6.11,6.11,0,0,1,1.74,4.21,7.74,7.74,0,0,1-.12,1.17,7.2,7.2,0,0,1-.33,1.12,8.38,8.38,0,0,1-.55,1,6,6,0,0,1-1.64,1.64,6,6,0,0,1-3.31,1"/></g></g></svg>